<mxfile host="65bd71144e">
    <diagram id="fjN8D4Odn0497USpxgly" name="Page-1">
        <mxGraphModel dx="841" dy="1453" grid="1" gridSize="10" guides="1" tooltips="1" connect="1" arrows="1" fold="1" page="1" pageScale="1" pageWidth="1169" pageHeight="827" background="#ffffff" math="0" shadow="0">
            <root>
                <mxCell id="0"/>
                <mxCell id="1" parent="0"/>
                <mxCell id="538" value="" style="rounded=0;whiteSpace=wrap;html=1;strokeColor=none;" vertex="1" parent="1">
                    <mxGeometry x="30" y="-810" width="710" height="140" as="geometry"/>
                </mxCell>
                <mxCell id="530" value="" style="rounded=0;whiteSpace=wrap;html=1;fillColor=#d5e8d4;strokeColor=#82b366;" parent="1" vertex="1">
                    <mxGeometry x="210" y="-720" width="300" height="40" as="geometry"/>
                </mxCell>
                <mxCell id="529" value="" style="rounded=0;whiteSpace=wrap;html=1;fillColor=#d5e8d4;strokeColor=#82b366;" parent="1" vertex="1">
                    <mxGeometry x="210" y="-760" width="300" height="40" as="geometry"/>
                </mxCell>
                <mxCell id="484" value="void" style="rounded=0;whiteSpace=wrap;html=1;fillColor=#fff2cc;strokeColor=#d6b656;" parent="1" vertex="1">
                    <mxGeometry x="149.5" y="-760" width="60.5" height="40" as="geometry"/>
                </mxCell>
                <mxCell id="485" value="void" style="rounded=0;whiteSpace=wrap;html=1;fillColor=#fff2cc;strokeColor=#d6b656;" parent="1" vertex="1">
                    <mxGeometry x="149.5" y="-720" width="60.5" height="40" as="geometry"/>
                </mxCell>
                <mxCell id="488" value="src" style="rounded=0;whiteSpace=wrap;html=1;" parent="1" vertex="1">
                    <mxGeometry x="220" y="-750" width="29.5" height="23.5" as="geometry"/>
                </mxCell>
                <mxCell id="489" value="Registry Store" style="rounded=0;whiteSpace=wrap;html=1;" parent="1" vertex="1">
                    <mxGeometry x="249.5" y="-750" width="90" height="23.5" as="geometry"/>
                </mxCell>
                <mxCell id="490" value="register_store_dst" style="rounded=0;whiteSpace=wrap;html=1;fillColor=#e1d5e7;strokeColor=#9673a6;" parent="1" vertex="1">
                    <mxGeometry x="40" y="-720" width="110" height="40" as="geometry"/>
                </mxCell>
                <mxCell id="491" value="register_store_src" style="rounded=0;whiteSpace=wrap;html=1;fillColor=#e1d5e7;strokeColor=#9673a6;" parent="1" vertex="1">
                    <mxGeometry x="40" y="-760" width="110" height="40" as="geometry"/>
                </mxCell>
                <mxCell id="496" value="dst" style="rounded=0;whiteSpace=wrap;html=1;" parent="1" vertex="1">
                    <mxGeometry x="220" y="-710" width="29.5" height="23.5" as="geometry"/>
                </mxCell>
                <mxCell id="497" value="Registry Store" style="rounded=0;whiteSpace=wrap;html=1;" parent="1" vertex="1">
                    <mxGeometry x="249.5" y="-710" width="90" height="23.5" as="geometry"/>
                </mxCell>
                <mxCell id="524" value="&lt;b&gt;Name&lt;/b&gt;" style="rounded=0;whiteSpace=wrap;html=1;align=center;fillColor=#dae8fc;strokeColor=#6c8ebf;" parent="1" vertex="1">
                    <mxGeometry x="40" y="-800" width="110" height="40" as="geometry"/>
                </mxCell>
                <mxCell id="525" value="&lt;b&gt;Parameters&lt;/b&gt;" style="rounded=0;whiteSpace=wrap;html=1;align=center;fillColor=#dae8fc;strokeColor=#6c8ebf;" parent="1" vertex="1">
                    <mxGeometry x="210" y="-800" width="300" height="40" as="geometry"/>
                </mxCell>
                <mxCell id="526" value="&lt;b&gt;Returns&lt;/b&gt;" style="rounded=0;whiteSpace=wrap;html=1;align=center;fillColor=#dae8fc;strokeColor=#6c8ebf;" parent="1" vertex="1">
                    <mxGeometry x="150" y="-800" width="60" height="40" as="geometry"/>
                </mxCell>
                <mxCell id="536" value="Register store to write data to" style="rounded=0;whiteSpace=wrap;html=1;fillColor=#f5f5f5;strokeColor=#666666;fontColor=#333333;" parent="1" vertex="1">
                    <mxGeometry x="510" y="-720" width="220" height="40" as="geometry"/>
                </mxCell>
                <mxCell id="537" value="Register store to read data from" style="rounded=0;whiteSpace=wrap;html=1;fillColor=#f5f5f5;strokeColor=#666666;fontColor=#333333;" parent="1" vertex="1">
                    <mxGeometry x="510" y="-760" width="220" height="40" as="geometry"/>
                </mxCell>
                <mxCell id="527" value="&lt;b&gt;Description&lt;/b&gt;" style="rounded=0;whiteSpace=wrap;html=1;align=center;fillColor=#dae8fc;strokeColor=#6c8ebf;" parent="1" vertex="1">
                    <mxGeometry x="510" y="-800" width="220" height="40" as="geometry"/>
                </mxCell>
            </root>
        </mxGraphModel>
    </diagram>
</mxfile>